<?xml version="1.0" encoding="utf-8"?>
<!-- Generator: Adobe Illustrator 19.0.1, SVG Export Plug-In . SVG Version: 6.00 Build 0)  -->
<!DOCTYPE svg PUBLIC "-//W3C//DTD SVG 1.1//EN" "http://www.w3.org/Graphics/SVG/1.1/DTD/svg11.dtd">
<svg version="1.1" id="Layer_1" xmlns="http://www.w3.org/2000/svg" xmlns:xlink="http://www.w3.org/1999/xlink" x="0px" y="0px"
	 viewBox="0 0 112.2 22.2" style="enable-background:new 0 0 112.2 22.2;" xml:space="preserve">
<style type="text/css">
	.st0{fill:#FFFFFF;}
	.st1{fill-rule:evenodd;clip-rule:evenodd;fill:#FFFFFF;}
</style>
<g>
	<g>
		<path class="st1" d="M110,3.2c-0.1-0.1-0.1-0.1-0.2-0.2c0.2,0,0.4-0.1,0.6-0.3c0.1-0.2,0.2-0.3,0.2-0.5c0-0.1,0-0.3-0.1-0.4
			c-0.1-0.1-0.2-0.2-0.4-0.3c-0.1-0.1-0.4-0.1-0.7-0.1h-1v2.9h0.5V3.1h0.3c0.2,0,0.3,0,0.4,0.1c0.1,0.1,0.3,0.3,0.5,0.7l0.3,0.5h0.6
			l-0.3-0.6C110.3,3.5,110.1,3.3,110,3.2z M109.4,2.7h-0.6V1.9h0.5c0.2,0,0.4,0,0.5,0c0.1,0,0.1,0.1,0.2,0.1c0,0.1,0.1,0.1,0.1,0.2
			c0,0.1,0,0.2-0.1,0.3C109.9,2.7,109.7,2.7,109.4,2.7z M111.8,1.5c-0.2-0.4-0.6-0.8-1-1c-0.4-0.2-0.9-0.3-1.3-0.3
			c-0.4,0-0.9,0.1-1.3,0.3c-0.4,0.2-0.8,0.6-1,1c-0.2,0.4-0.4,0.9-0.4,1.3c0,0.5,0.1,0.9,0.3,1.3c0.2,0.4,0.6,0.8,1,1
			c0.4,0.2,0.9,0.4,1.3,0.4s0.9-0.1,1.3-0.4c0.4-0.2,0.7-0.6,1-1c0.2-0.4,0.3-0.9,0.3-1.3C112.2,2.4,112.1,2,111.8,1.5z M111.5,4
			c-0.2,0.4-0.5,0.6-0.8,0.8c-0.3,0.2-0.7,0.3-1.1,0.3c-0.4,0-0.7-0.1-1.1-0.3c-0.3-0.2-0.6-0.5-0.8-0.8c-0.2-0.4-0.3-0.7-0.3-1.1
			c0-0.4,0.1-0.8,0.3-1.1c0.2-0.4,0.5-0.6,0.8-0.8c0.4-0.2,0.7-0.3,1.1-0.3c0.4,0,0.7,0.1,1.1,0.3c0.4,0.2,0.6,0.5,0.8,0.8
			c0.2,0.4,0.3,0.7,0.3,1.1C111.8,3.3,111.7,3.6,111.5,4z M58.9,0L58.9,0h-6.1v6.1h6.1V0z M78,0h-6h-0.1v6.1H78V0z M51.8,6.2V0H32.2
			c-2.9,0-5.3,2-6,4.8V0H14.4l-4,6.1H26L51.8,6.2z M0,22.2h7.6l9.7-15.2l-7-0.4L0,22.2z M99,8.8l-1.2-0.1c-6.6-0.3-13.1-0.6-19.7-1
			c0.5,2.6,2.7,4.8,6.1,5.2l14.3,0.9c0.6,0,1.1,0.5,1.1,1.1v0c0,0.6-0.5,1.1-1.1,1.1H78V7.7l-6.1-0.3v7.1c0,1-0.8,1.8-1.8,1.8h-9.4
			c-1,0-1.8-0.8-1.8-1.8V6.7l-6.1-0.3v7c-0.7-2.7-3.1-4.6-6-4.6L19.8,7.1v15.1h5.8h0.5h20.6c3,0,5.5-2.2,6.1-5.1
			c0.5,2.9,3,5.1,5.9,5.1H72c2.9,0,5.4-2.2,5.9-5v5H99c3.4,0,6.2-2.8,6.2-6.3V15C105.2,11.6,102.4,8.8,99,8.8z M47.4,14.9
			c0,0.6-0.5,1.1-1.1,1.1H26.2v-8c0.6,2.5,2.8,4.5,6,4.9l14.1,0.9C46.9,13.9,47.4,14.4,47.4,14.9L47.4,14.9z M78.1,6.2l27.1,0V0h-21
			C80.9,0,78.1,2.8,78.1,6.2z"/>
	</g>
</g>
</svg>
